<svg id="Layer_1" data-name="Layer 1" xmlns="http://www.w3.org/2000/svg" viewBox="0 0 1717.42 422.67"><defs><style>.cls-1{fill:#49c7b7;}.cls-2{fill:#6becb7;}.cls-3{fill:#6bece1;}.cls-4{fill:#14b4ac;}.cls-5{fill:#86ccf8;}.cls-6{fill:#869cf8;}.cls-7{fill:#b8a9f8;}.cls-8{fill:#b8ccf8;}.cls-9{fill:#f7e8d2;}.cls-10{fill:#ffe8b0;}.cls-11{fill:#fbc8d4;}.cls-12{fill:#fba8d4;}.cls-13{fill:#e9a9e7;}.cls-14{fill:#cc9de7;}.cls-15{fill:#a89fe9;}.cls-16{fill:#a87ce9;}</style></defs><text x="43.49" y="-247"/><path d="M1673.92,575.9v17.93c0,4.09-.28,9.89-.78,17.4-1,.18-3.2.43-6.55.79s-5.76.49-7.29.49a11,11,0,0,0-8.44,4.1,42.29,42.29,0,0,0-4.87,9.5q-2.09,5.13-3.85,10.25-7.41,16.13-23.06,21.78c-7.36,2.88-17.93,4.34-31.78,4.34q-14.35,0-31-6.16c-.68-.25-1.35-.5-2-.82l1.74-4.37a75.07,75.07,0,0,0,13.35,3.66,107,107,0,0,0,21.53,2.56c7.86,0,18.43-2.13,31.78-6.4a14.12,14.12,0,0,0-5.66-1.78,95.55,95.55,0,0,0-16.12,2,94,94,0,0,1-16.66,2.06q-11.41,0-26.83-3.7L1559,643a106.12,106.12,0,0,0,25.26,2.81c9.54,0,17.37-1,23.42-3.06s11.71-6.37,16.94-13,8-12.85,8.57-18.83a96.87,96.87,0,0,1,1.78-14.09c1-1.53,8.79-2.92,23.31-4.09V580.74a20.79,20.79,0,0,0-.74-4.74,19.69,19.69,0,0,1-.75-4.23,99.51,99.51,0,0,1-15-.75c-2.13-.28-4.06-.5-5.8-.68l.68-6.51a25.77,25.77,0,0,0,3.2.25h21.28C1662.29,564.44,1666.56,568.35,1673.92,575.9ZM1648.8,610q5.65-2.3,15.62-2c-2-5.3-3.74-8-5.12-8a127.22,127.22,0,0,0-17.16,1.82C1643.5,603.65,1645.74,606.36,1648.8,610Z" transform="translate(43.49 -247)"/><path class="cls-1" d="M1664.42,607.92q-10-.25-15.62,2c-3.06-3.59-5.3-6.3-6.66-8.18A127.22,127.22,0,0,1,1659.3,600C1660.68,600,1662.39,602.62,1664.42,607.92Z" transform="translate(43.49 -247)"/><path class="cls-2" d="M1658.26,580.74V592.8c-14.52,1.17-22.27,2.56-23.31,4.09a96.87,96.87,0,0,0-1.78,14.09q-.8,9-8.57,18.83c-5.23,6.58-10.86,10.89-16.94,13s-13.88,3.06-23.42,3.06A106.12,106.12,0,0,1,1559,643q-24.93-6.24-37.26-26.12-6.15-10.25-6.16-29.75,0-30.48,17.15-58.4,18.48-29.73,46.12-38.18a79.16,79.16,0,0,1,25.38-2.81c6.51.32,10.92.82,13.34,1.49.68,6.83,1,11.92,1,15.27V510h-6.12a56.89,56.89,0,0,0-12.56,1.82c-4.1.85-8.22,1.78-12.32,2.81q-22.26,4.11-36.62,24.59a72.93,72.93,0,0,0-13.34,42.53c0,12,4.8,22.1,14.34,30.35s20.43,12.46,32.56,12.46q26.91,0,26.91-25.62,0-6.4-4.38-6.41a42.61,42.61,0,0,1-8.19-.53q.27-13.29.75-19.22,21.89-3,27.44-3.06c2.1,0,5.09.21,8.93.6,1.74.18,3.67.4,5.8.68a99.51,99.51,0,0,0,15,.75,19.69,19.69,0,0,0,.75,4.23A20.79,20.79,0,0,1,1658.26,580.74Z" transform="translate(43.49 -247)"/><path d="M1636.63,563.83l-.68,6.51c-3.84-.39-6.83-.6-8.93-.6q-5.55,0-27.44,3.06-.48,5.93-.75,19.22a42.61,42.61,0,0,0,8.19.53q4.38,0,4.38,6.41,0,25.62-26.91,25.62-18.2,0-32.56-12.46c-9.54-8.25-14.34-18.4-14.34-30.35a72.93,72.93,0,0,1,13.34-42.53q14.31-20.49,36.62-24.59c4.1-1,8.22-2,12.32-2.81l1.53,6.55c-4,.89-8.58,2.17-13.85,3.88q-18.4,5.87-20.5,10.92a7.7,7.7,0,0,1-2.17,2.92c-1.28,1.28-1.92,2.35-1.92,3.2,0,3.74.79,6.34,2.32,7.87A67.17,67.17,0,0,1,1594,530.91c4.09-1,14.94-2.88,32.56-5.58l1,5.37c-22.71,4.06-38.9,8.79-48.69,14.16q-24.55,13.89-24.59,42.53,0,29.73,29.72,29.75,15.16,0,17.93-6.16c-4.59-5.65-7-8.61-7.15-9a19.07,19.07,0,0,1-3.59-10.5c0-2.56.07-6.34.25-11.28s.25-8.61.25-11q4.36-6.4,35.62-6.41a46.69,46.69,0,0,1,6.55.64C1634.88,563.62,1635.81,563.73,1636.63,563.83ZM1604,604.08l1-5.12h-4.88Q1601.4,600.71,1604,604.08Z" transform="translate(43.49 -247)"/><path d="M1636.24,496.18c.17.36.24,2.85.24,7.44,0,3.42-.56,11.88-1.77,25.37l-4.35,2.07-1.81-.54c-.36.07-.71.14-1,.18l-1-5.37q-3.84-5.34-5.66-6.62c-1.88-1.18-4.87-1.75-9-1.75a49.64,49.64,0,0,0-10.49,1.43l-1.53-6.55a56.89,56.89,0,0,1,12.56-1.82h6.12v-5.51c0-3.35-.32-8.44-1-15.27-2.42-.67-6.83-1.17-13.34-1.49a79.16,79.16,0,0,0-25.38,2.81q-27.64,8.43-46.12,38.18-17.13,27.93-17.15,58.4,0,19.49,6.16,29.75Q1534.05,636.81,1559,643l-1.57,6.55c-2.42-.57-5-1.21-7.51-1.92a20.7,20.7,0,0,0,6.12,3.49l-1.74,4.37q-10-4.15-22.85-15.3c-9.39-8.22-16-15.62-20-22.31q-1.82-3.32-3.74-12.28a70.81,70.81,0,0,1-1.92-13.34q0-25.85,8.47-47.12a113.58,113.58,0,0,1,30.5-43.84c15.69-14,31.78-21,48.15-21l23.34.5Q1631.11,486.74,1636.24,496.18Z" transform="translate(43.49 -247)"/><path class="cls-1" d="M1620.86,518.71q1.82,1.27,5.66,6.62c-17.62,2.7-28.47,4.59-32.56,5.58a67.17,67.17,0,0,0-28.68,16.27c-1.53-1.53-2.32-4.13-2.32-7.87,0-.85.64-1.92,1.92-3.2a7.7,7.7,0,0,0,2.17-2.92q2.09-5.07,20.5-10.92c5.27-1.71,9.9-3,13.85-3.88a49.64,49.64,0,0,1,10.49-1.43C1616,517,1619,517.53,1620.86,518.71Z" transform="translate(43.49 -247)"/><path class="cls-1" d="M1617,649.17a14.12,14.12,0,0,1,5.66,1.78c-13.35,4.27-23.92,6.4-31.78,6.4a107,107,0,0,1-21.53-2.56,75.07,75.07,0,0,1-13.35-3.66,20.7,20.7,0,0,1-6.12-3.49c2.56.71,5.09,1.35,7.51,1.92q15.43,3.69,26.83,3.7a94,94,0,0,0,16.66-2.06A95.55,95.55,0,0,1,1617,649.17Z" transform="translate(43.49 -247)"/><path class="cls-1" d="M1605,599l-1,5.12q-2.57-3.36-3.85-5.12Z" transform="translate(43.49 -247)"/><path d="M1481,539.74q6.13,22.57,6.16,35.87,0,18.74-9.22,39.72-11.54,26.14-30.75,34.87c-4,2.21-8,4.41-12.06,6.66a26.75,26.75,0,0,1-12,2.56q-25.35,0-42.28-13.1-9.22-6.89-17.93-30.46-8.49-22.05-8.47-35.62V556.18c.14,0,1.39-6.4,3.84-19.25q1-7.42,5.66-23.56,4.59-11.06,19.47-24.59,12.54-11.32,17.15-12.31,17.94-5.13,24.34-5.13,20,0,35.87,22.56Q1473.05,511.57,1481,539.74Zm-13.59,78.43A67.59,67.59,0,0,0,1479.19,580q0-25.62-12.81-57.9-17.19-43.35-45.37-43.31-26.91,0-39.18,31.78-8,21-8,48.15,0,43.56,32.57,70c2.74,2.21,6.94,4.45,12.66,6.66s10.29,3.34,13.71,3.34Q1454.08,638.67,1467.38,618.17Zm-70.54,19.22c3.13-.85,5.13-1.35,6-1.53q-17.67-12.29-27.69-34.73a102.19,102.19,0,0,1-9.21-42.35q0-14.79,1-21.42.75-5.61,5.62-22-2,1.27-5,7.15c-1.49,6.12-3,12.17-4.48,18.11a102.14,102.14,0,0,0-2.53,19.4,119.59,119.59,0,0,0,3.06,27.83c1.86,7.29,3.74,14.62,5.59,21.92a52.08,52.08,0,0,0,3.85,9.47c1.67,3.06,3.38,6.19,5.08,9.43q4.07,7.89,6.62,9.18c.68.5,2.81.78,6.37.78A34.75,34.75,0,0,0,1396.84,637.39Z" transform="translate(43.49 -247)"/><path class="cls-3" d="M1479.19,580a67.59,67.59,0,0,1-11.81,38.18q-13.31,20.51-34.59,20.5c-3.42,0-8-1.14-13.71-3.34s-9.92-4.45-12.66-6.66q-32.57-26.42-32.57-70,0-27.18,8-48.15,12.27-31.81,39.18-31.78,28.18,0,45.37,43.31Q1479.19,554.33,1479.19,580Zm-27.44,6.4c3.42-5.8,5.13-12.91,5.13-21.28,0-8.72-2.67-19.32-8.08-31.88s-11.32-21.82-17.79-27.8c-2.07-2.06-5.8-3.09-11.28-3.09q-15.37,0-15.38,33.84a141.4,141.4,0,0,0,3.84,34.59q7.21,26.64,25.13,26.62Q1445.34,597.39,1451.75,586.39Z" transform="translate(43.49 -247)"/><path d="M1435.88,587.68a14,14,0,0,0,1.92.49,26.28,26.28,0,0,0,6,.54c1.35-1,2.92-3.1,4.62-6.16s2.46-5.3,2.28-6.65c-1.71-.36-4.27,1.28-7.69,4.84Q1436.63,587.4,1435.88,587.68Zm21-22.57c0,8.37-1.71,15.48-5.13,21.28q-6.4,11-18.43,11-17.94,0-25.13-26.62a141.4,141.4,0,0,1-3.84-34.59q0-33.84,15.38-33.84c5.48,0,9.21,1,11.28,3.09q9.71,9,17.79,27.8C1454.21,545.79,1456.88,556.39,1456.88,565.11Zm-17.16,1.82a10.52,10.52,0,0,0,.25-2.07q0-7.68-5.37-21.28c-4.63-11.78-10.07-17.65-16.41-17.65a7.2,7.2,0,0,0-6.4,3.56v20.25c0,3.24,1.53,10.18,4.63,20.75,3.73,12.67,7.4,19,11,19,2.74,0,5.48-2.74,8.22-8.18,2.56-4.8,3.85-9,3.85-12.56A10,10,0,0,1,1439.72,566.93Z" transform="translate(43.49 -247)"/><path class="cls-4" d="M1450.72,575.9c.18,1.35-.57,3.55-2.28,6.65s-3.27,5.13-4.62,6.16a26.28,26.28,0,0,1-6-.54,14,14,0,0,1-1.92-.49q.75-.27,7.15-6.94C1446.45,577.18,1449,575.54,1450.72,575.9Z" transform="translate(43.49 -247)"/><path class="cls-4" d="M1402.82,635.86c-.85.18-2.85.68-6,1.53a34.75,34.75,0,0,1-5.73,1.28c-3.56,0-5.69-.28-6.37-.78q-2.55-1.29-6.62-9.18c-1.7-3.24-3.41-6.37-5.08-9.43a52.08,52.08,0,0,1-3.85-9.47c-1.85-7.3-3.73-14.63-5.59-21.92a119.59,119.59,0,0,1-3.06-27.83,102.14,102.14,0,0,1,2.53-19.4c1.5-5.94,3-12,4.48-18.11q3-5.87,5-7.15-4.86,16.33-5.62,22-1,6.61-1,21.42a102.19,102.19,0,0,0,9.21,42.35Q1385.18,623.6,1402.82,635.86Z" transform="translate(43.49 -247)"/><path d="M1345.67,557.43a93.87,93.87,0,0,1,1.56,23.59q-1.55,24.35-10.78,41.25-14.09,25.35-25.87,33.8-16.12,12.07-47.4,11.28-39.72-.52-46.9-13.59Q1203,630,1203,628.39q0-4.33,9-36.87,5.4-20.5,11-41,4.32-17.44,9.71-47.65c4.09-22.06,8.22-33.06,12.31-33.06a105.91,105.91,0,0,1,41.5,8.72q46.11,20,54.59,58.4Zm-13.56,24.2a117,117,0,0,0,3.06-24.06q0-26.37-12.81-43.24-11.27-15.11-36.37-26.62a88.9,88.9,0,0,0-38.15-8.93,66.38,66.38,0,0,1-3.84,13.56c-2.21,6.87-3.6,11.39-4.1,13.59q-2.55,14.35-8.43,42.53-5.65,24.82-20.32,79.71,25.41,14.1,51.53,14.06a61.08,61.08,0,0,0,21.78-3.81c2.38-.85,9-4,19.71-9.5q13.83-7.15,20-19.93C1326.2,604.54,1328.87,595.43,1332.11,581.63ZM1288.3,657.1c-2.92-1.7-5.83-3.48-8.72-5.37-2.74-1.39-7.08-2.24-13.06-2.56-12-.68-20.67-1.39-26.15-2.06q-15.86-2.31-26.66-8.19c0,.32,1.46,3.24,4.38,8.72,1.89,3.42,3.91,5.8,6.16,7.15q9,5.13,28.18,5.13Q1280.34,659.92,1288.3,657.1Z" transform="translate(43.49 -247)"/><path class="cls-5" d="M1335.17,557.57a117,117,0,0,1-3.06,24.06c-3.24,13.8-5.91,22.91-7.94,27.36q-6.18,12.76-20,19.93c-10.74,5.48-17.33,8.65-19.71,9.5a61.08,61.08,0,0,1-21.78,3.81q-26.16,0-51.53-14.06,14.68-54.93,20.32-79.71,5.88-28.19,8.43-42.53c.5-2.2,1.89-6.72,4.1-13.59a66.38,66.38,0,0,0,3.84-13.56,88.9,88.9,0,0,1,38.15,8.93q25.14,11.54,36.37,26.62Q1335.17,531.21,1335.17,557.57Zm-22.28,18c1.53-7,2.32-11.17,2.32-12.53,0-11.63-2-21-5.91-28.18q-5.65-10-20.11-19.86c-9.64-6.58-15.51-9.89-17.54-9.89q-3.84,0-6.94,9.5c-.18.18-1.28,4.59-3.31,13.31-2.42,9.57-4.2,16.76-5.41,21.53q-18.95,56.37-18.93,57.9c0,3.59,2.88,6.33,8.68,8.22a49.3,49.3,0,0,0,13.6,1.78q37.41,0,51.74-32.28A61.16,61.16,0,0,0,1312.89,575.61Z" transform="translate(43.49 -247)"/><path d="M1306.24,559.21v-4.6a31.13,31.13,0,0,0-9.75-23.06q-3.32-3.57-20.25-14.87a207,207,0,0,1,7.69,23.59C1294.53,545.72,1301.93,552,1306.24,559.21Zm9,3.87c0,1.36-.79,5.56-2.32,12.53a61.16,61.16,0,0,1-1.81,9.5q-14.31,32.29-51.74,32.28a49.3,49.3,0,0,1-13.6-1.78c-5.8-1.89-8.68-4.63-8.68-8.22q0-1.54,18.93-57.9c1.21-4.77,3-12,5.41-21.53,2-8.72,3.13-13.13,3.31-13.31q3.09-9.5,6.94-9.5c2,0,7.9,3.31,17.54,9.89s16.34,13.17,20.11,19.86C1313.21,542.05,1315.21,551.45,1315.21,563.08Zm-12.07,14.84a32.39,32.39,0,0,0-5.87-18.43,38.09,38.09,0,0,0-14.87-13.1c-3.07,10.79-6.16,21.53-9.22,32.32-4.09,14-7.8,24.16-11,30.5a111.37,111.37,0,0,0,16.4-2.57,44.83,44.83,0,0,0,16.8-11.67C1300.54,589.42,1303.14,583.72,1303.14,577.92Z" transform="translate(43.49 -247)"/><path class="cls-6" d="M1306.24,554.61v4.6c-4.31-7.19-11.71-13.49-22.31-18.94a207,207,0,0,0-7.69-23.59q16.92,11.31,20.25,14.87A31.13,31.13,0,0,1,1306.24,554.61Z" transform="translate(43.49 -247)"/><path class="cls-6" d="M1279.58,651.73c2.89,1.89,5.8,3.67,8.72,5.37q-8,2.83-35.87,2.82-19.22,0-28.18-5.13c-2.25-1.35-4.27-3.73-6.16-7.15-2.92-5.48-4.38-8.4-4.38-8.72q10.79,5.87,26.66,8.19c5.48.67,14.2,1.38,26.15,2.06C1272.5,649.49,1276.84,650.34,1279.58,651.73Z" transform="translate(43.49 -247)"/><path d="M975.17,575.9v17.93q0,6.13-.74,17.4c-1,.18-3.21.43-6.55.79s-5.77.49-7.3.49a11.08,11.08,0,0,0-8.47,4.1,44.19,44.19,0,0,0-4.84,9.5q-2.07,5.13-3.84,10.25-7.47,16.13-23.06,21.78c-7.37,2.88-17.94,4.34-31.78,4.34q-14.36,0-31-6.16c-.68-.25-1.36-.5-2-.82l1.74-4.37a75.07,75.07,0,0,0,13.35,3.66,107,107,0,0,0,21.53,2.56c7.82,0,18.43-2.13,31.74-6.4a14,14,0,0,0-5.62-1.78,96.38,96.38,0,0,0-16.16,2,93.17,93.17,0,0,1-16.65,2.06c-7.62,0-16.52-1.24-26.8-3.7l1.56-6.55a105.77,105.77,0,0,0,25.24,2.81q14.36,0,23.45-3.06t16.9-13c5.23-6.58,8.08-12.85,8.61-18.83a92.89,92.89,0,0,1,1.78-14.09c1-1.53,8.79-2.92,23.31-4.09V580.74a20.35,20.35,0,0,0-.75-4.74,18.43,18.43,0,0,1-.78-4.23,99,99,0,0,1-15-.75c-2.14-.28-4.06-.5-5.8-.68l.67-6.51a26,26,0,0,0,3.21.25h21.24C963.57,564.44,967.84,568.35,975.17,575.9ZM950.09,610c3.73-1.53,9-2.2,15.62-2-2.07-5.3-3.77-8-5.13-8a126.65,126.65,0,0,0-17.15,1.82C944.78,603.65,947,606.36,950.09,610Z" transform="translate(43.49 -247)"/><path class="cls-7" d="M965.71,607.92c-6.66-.17-11.89.5-15.62,2-3.1-3.59-5.31-6.3-6.66-8.18A126.65,126.65,0,0,1,960.58,600C961.94,600,963.64,602.62,965.71,607.92Z" transform="translate(43.49 -247)"/><path class="cls-8" d="M959.55,580.74V592.8c-14.52,1.17-22.28,2.56-23.31,4.09A92.89,92.89,0,0,0,934.46,611c-.53,6-3.38,12.25-8.61,18.83S915,640.7,909,642.76s-13.88,3.06-23.45,3.06A105.77,105.77,0,0,1,860.26,643q-24.91-6.24-37.26-26.12c-4.12-6.83-6.15-16.76-6.15-29.75q0-30.48,17.15-58.4,18.46-29.73,46.12-38.18a79,79,0,0,1,25.38-2.81c6.47.32,10.92.82,13.3,1.49.72,6.83,1,11.92,1,15.27V510h-6.16a57.06,57.06,0,0,0-12.53,1.82q-6.18,1.28-12.31,2.81-22.3,4.11-36.65,24.59a73,73,0,0,0-13.31,42.53c0,12,4.77,22.1,14.34,30.35s20.42,12.46,32.56,12.46q26.91,0,26.9-25.62,0-6.4-4.37-6.41a42.61,42.61,0,0,1-8.19-.53c.14-8.86.43-15.27.75-19.22q21.82-3,27.44-3.06c2.1,0,5.09.21,8.93.6,1.74.18,3.66.4,5.8.68a99,99,0,0,0,15,.75,18.43,18.43,0,0,0,.78,4.23A20.35,20.35,0,0,1,959.55,580.74Z" transform="translate(43.49 -247)"/><path d="M937.91,563.83l-.67,6.51c-3.84-.39-6.83-.6-8.93-.6q-5.61,0-27.44,3.06c-.32,4-.61,10.36-.75,19.22a42.61,42.61,0,0,0,8.19.53q4.37,0,4.37,6.41,0,25.62-26.9,25.62-18.21,0-32.56-12.46c-9.57-8.25-14.34-18.4-14.34-30.35a73,73,0,0,1,13.31-42.53q14.35-20.49,36.65-24.59,6.13-1.54,12.31-2.81l1.53,6.55c-3.95.89-8.57,2.17-13.84,3.88q-18.47,5.87-20.5,10.92a7.81,7.81,0,0,1-2.17,2.92c-1.28,1.28-1.92,2.35-1.92,3.2,0,3.74.75,6.34,2.31,7.87a67.26,67.26,0,0,1,28.69-16.27c4.09-1,14.94-2.88,32.52-5.58l1,5.41q-34,6-48.65,14.12-24.6,13.89-24.59,42.53,0,29.73,29.72,29.75,15.11,0,17.93-6.16c-4.59-5.65-7-8.61-7.15-9a18.78,18.78,0,0,1-3.6-10.5c0-2.56.08-6.34.25-11.28s.25-8.61.25-11c2.92-4.27,14.77-6.41,35.63-6.41a46.85,46.85,0,0,1,6.54.64C936.17,563.62,937.1,563.73,937.91,563.83Zm-32.66,40.25,1-5.12H901.4Q902.69,600.71,905.25,604.08Z" transform="translate(43.49 -247)"/><path d="M937.52,496.18c.18.36.25,2.85.25,7.44q0,5.13-1.78,25.37l-4.37,2.07-1.78-.54-1.07.22-1-5.41c-2.56-3.56-4.45-5.77-5.62-6.62-1.89-1.18-4.88-1.75-9-1.75a49.72,49.72,0,0,0-10.5,1.43l-1.53-6.55A57.06,57.06,0,0,1,913.68,510h6.16v-5.51c0-3.35-.32-8.44-1-15.27-2.38-.67-6.83-1.17-13.3-1.49a79,79,0,0,0-25.38,2.81Q852.48,499,834,528.74q-17.13,27.93-17.15,58.4c0,13,2,22.92,6.15,29.75q12.35,19.92,37.26,26.12l-1.56,6.55c-2.42-.57-5-1.21-7.51-1.92a20.57,20.57,0,0,0,6.12,3.49l-1.74,4.37q-10-4.15-22.85-15.3c-9.39-8.22-16.05-15.62-20-22.31q-1.82-3.32-3.74-12.28a70.81,70.81,0,0,1-1.92-13.34q0-25.85,8.47-47.12a113.48,113.48,0,0,1,30.5-43.84q23.53-21,48.14-21l23.31.5Q932.42,486.74,937.52,496.18Z" transform="translate(43.49 -247)"/><path class="cls-7" d="M922.15,518.71c1.17.85,3.06,3.06,5.62,6.62-17.58,2.7-28.43,4.59-32.52,5.58a67.26,67.26,0,0,0-28.69,16.27c-1.56-1.53-2.31-4.13-2.31-7.87,0-.85.64-1.92,1.92-3.2a7.81,7.81,0,0,0,2.17-2.92q2-5.07,20.5-10.92c5.27-1.71,9.89-3,13.84-3.88a49.72,49.72,0,0,1,10.5-1.43C917.27,517,920.26,517.53,922.15,518.71Z" transform="translate(43.49 -247)"/><path class="cls-7" d="M918.31,649.17a14,14,0,0,1,5.62,1.78c-13.31,4.27-23.92,6.4-31.74,6.4a107,107,0,0,1-21.53-2.56,75.07,75.07,0,0,1-13.35-3.66,20.57,20.57,0,0,1-6.12-3.49c2.56.71,5.09,1.35,7.51,1.92,10.28,2.46,19.18,3.7,26.8,3.7a93.17,93.17,0,0,0,16.65-2.06A96.38,96.38,0,0,1,918.31,649.17Z" transform="translate(43.49 -247)"/><path class="cls-7" d="M906.28,599l-1,5.12q-2.57-3.36-3.85-5.12Z" transform="translate(43.49 -247)"/><path d="M791.62,618.35a59.54,59.54,0,0,1,1.67,10.82q0,2.57-8.22,18.72c-12.46,3.56-28.54,7.26-48.19,11q-21.24,4.38-59.67,10.79-3.59-5.4-6.91-15.87c-1.64-4.81-3.24-9.58-4.77-14.38l5.8-1.85c.36,1.39,3.24,8.33,8.69,20.82a27.21,27.21,0,0,0,3.34-4.88,23.15,23.15,0,0,0-1.1-5l6-1.21q32.78-6.4,97.86-18.43v-1.53a37.78,37.78,0,0,0-.92-7.65Z" transform="translate(43.49 -247)"/><path d="M791.62,618.35l-6.44,1.39c-.36-1.71-.82-3.52-1.39-5.45-1.35-4.09-2.74-8.25-4.09-12.52q-22.32,4.86-27.16,4.87c-3.09,0-5.55-5-7.43-15.12-1-6.48-2-13-2.82-19.47-1.38-4.27-3.27-10.74-5.65-19.46q-3-14-11.53-42.49c0-2.57,5.48-5,16.4-7.41q10-2.07,20.25-3.84c-.36-11.6-2-19.15-5.12-22.53q-15.37,3.85-46.87,10.5l-42.39,6.83-.92-5.9q26.64-4.38,74.8-15.13c11.43-2.56,17.51-3.84,18.19-3.84,2.2,0,4.69,4.52,7.43,13.56,2.21,8,3.35,13.7,3.35,16.94,0,1.71-.89,5.37-2.6,11s-3,8.72-3.84,9.26a65.24,65.24,0,0,1-11.89,2.91,66.64,66.64,0,0,0-11.92,3,169.73,169.73,0,0,0,4.59,22.31q4.65,17.67,5.66,22.28,1,9.22,5.62,28.18c.86-.17,5.06-1.1,12.56-2.81A55.26,55.26,0,0,1,781,593.3l3.59,1c1.35,2.21,3.13,7.83,5.37,16.8C790.59,613.8,791.15,616.22,791.62,618.35Z" transform="translate(43.49 -247)"/><path class="cls-9" d="M786.1,627.39v1.53Q721,641,688.24,647.35q-7.63-25.14-8-25.12v-2c9.92-2.21,18.47-4,25.62-5.37,3.77-.54,7.61-1.11,11.53-1.78,4.8-1.39,7.19-4,7.19-8q0-9.72-5.13-27.4c-4.62-15.56-7.19-24.84-7.68-27.94-1-6.3-2-12.71-2.82-19.22-1.38-8.86-2.91-14.69-4.62-17.4a5.51,5.51,0,0,0-5.13-2.56,132.89,132.89,0,0,0-32.77,4.59c-1.89-9.18-3.28-16.09-4.13-20.68,1.74-.28,3.42-.57,5-.82l42.39-6.83q31.49-6.68,46.87-10.5c3.09,3.38,4.76,10.93,5.12,22.53q-10.25,1.75-20.25,3.84c-10.92,2.39-16.4,4.84-16.4,7.41q8.48,28.44,11.53,42.49c2.38,8.72,4.27,15.19,5.65,19.46.86,6.51,1.78,13,2.82,19.47,1.88,10.07,4.34,15.12,7.43,15.12q4.86,0,27.16-4.87c1.35,4.27,2.74,8.43,4.09,12.52.57,1.93,1,3.74,1.39,5.45A37.78,37.78,0,0,1,786.1,627.39Z" transform="translate(43.49 -247)"/><path d="M656.21,527.18l3.06-9a38.06,38.06,0,0,0-1.78-9.72c-1.89-6.33-2.85-9.57-2.85-9.75a26.92,26.92,0,0,0-2.27,4.63c0,.68.57,4.73,1.78,12.17S656,526.68,656.21,527.18Zm63.27,50.5q5.13,17.66,5.13,27.4c0,3.95-2.39,6.58-7.19,8-3.92.67-7.76,1.24-11.53,1.78-7.15,1.35-15.7,3.16-25.62,5.37v2q.32,0,8,25.12l-6,1.21c-.64-2.1-1.53-4.62-2.74-7.61-3.6-8.36-5.37-12.63-5.37-12.81a91.4,91.4,0,0,0-2.85,9.21.77.77,0,0,0,0,.22l-5.8,1.85-.64-2q0-4.38,8.47-22.53,13.83-3.78,29.75-6.79a358.45,358.45,0,0,1-7.19-38.76q-2.55-19.8-5.12-39.29-3,.27-19.72,3.31c-10.46,1.71-15.9,2.57-16.44,2.57-1.17,0-2.63-4.52-4.34-13.56a141.38,141.38,0,0,1-3.84-16.91c1.71-3.27,4.52-7.86,8.43-13.84,1.39-1.71,5.23-3,11.57-3.84l.92,5.9c-1.63.25-3.31.54-5,.82.85,4.59,2.24,11.5,4.13,20.68a132.89,132.89,0,0,1,32.77-4.59,5.51,5.51,0,0,1,5.13,2.56c1.71,2.71,3.24,8.54,4.62,17.4.86,6.51,1.78,12.92,2.82,19.22C712.29,552.84,714.86,562.12,719.48,577.68Zm-3.84,26.4q-.54-14.9-7.19-40c-4.77-18.43-7.58-31.6-8.43-39.43L695.64,530a121.71,121.71,0,0,0,2.56,13.85c1.89,7,3,11.6,3.35,13.81q1,7.2,7.15,49A28.06,28.06,0,0,0,715.64,604.08Z" transform="translate(43.49 -247)"/><path class="cls-10" d="M708.45,564.08q6.67,25.14,7.19,40a28.06,28.06,0,0,1-6.94,2.56q-6.13-41.79-7.15-49c-.36-2.21-1.46-6.84-3.35-13.81A121.71,121.71,0,0,1,695.64,530l4.38-5.37C700.87,532.48,703.68,545.65,708.45,564.08Z" transform="translate(43.49 -247)"/><path class="cls-10" d="M682.26,648.56a23.15,23.15,0,0,1,1.1,5,27.21,27.21,0,0,1-3.34,4.88c-5.45-12.49-8.33-19.43-8.69-20.82a.77.77,0,0,1,0-.22,91.4,91.4,0,0,1,2.85-9.21c0,.18,1.77,4.45,5.37,12.81C680.73,643.94,681.62,646.46,682.26,648.56Z" transform="translate(43.49 -247)"/><path class="cls-10" d="M659.27,518.21l-3.06,9c-.21-.5-.93-4.34-2.06-11.64s-1.78-11.49-1.78-12.17a26.92,26.92,0,0,1,2.27-4.63c0,.18,1,3.42,2.85,9.75A38.06,38.06,0,0,1,659.27,518.21Z" transform="translate(43.49 -247)"/><path d="M577.88,643.8H566.67q-21.34,0-43.7-9.26c2.71,5.23,5.06,9.82,7.12,13.81q5.55.27,18,1.82a142.67,142.67,0,0,0,17.8,1.56c13.2,0,20.85-1.56,22.88-4.73C584.4,645,580.77,643.94,577.88,643.8Zm57.3-41.29A35,35,0,0,1,632.86,614c-1.17,3.6-2.45,7.26-3.84,11q-10.24,33.57-63,33.56a196.26,196.26,0,0,1-21.53-1.78c-11.78-1.39-18.26-2.82-19.47-4.38q-1.28-3.32-3.84-9.47Q514,627.91,514,626.36c0-6.34,5.2-19,15.63-38.19,2,0,8.25,3.31,18.68,9.86s20.07,9.89,29,9.89a6.09,6.09,0,0,0,.85-.07l.71,6.76v0a32.68,32.68,0,0,1-3.34.18q-16.44,0-42.28-17.94c-2.42,5.8-6.26,14.88-11.53,27.15v1.53a100.16,100.16,0,0,0,45.09,10.54c10.39,0,18.36-.61,23.81-1.82q13.33-2.55,21.78-14.09a41.16,41.16,0,0,0,8.47-24.84q0-20.24-9.22-32c-3.06-3.84-9-8.07-17.94-12.67l3.7-6.79c3.24,1.78,6.45,3.49,9.61,5.23a38.51,38.51,0,0,1,14.34,13.7q2.83,4.38,8.33,17.69T635.18,602.51Z" transform="translate(43.49 -247)"/><path d="M625.18,489.78q3.84,6.66,3.84,23.84c0,3.06-1.81,7-5.48,11.64s-7,7-10.14,7c-.18,0-4.34-1.53-12.56-4.59s-14.77-4.63-19.72-4.63c-2.74,0-4.09,1-4.09,3.1q0,5.61,12.28,13.31c2.7,1.46,5.41,2.92,8.07,4.38l-3.7,6.79c-.6-.32-1.21-.6-1.81-.92q-18.21-9-23.31-12.81-11.26-8.7-11.28-20.25,0-16.12,24.09-16.12,11.79,0,24.88,5.62l7.15-14.59c0-2.24-4.95-4.95-14.84-8.22q-13.35-4.59-18.47-4.59-10,0-34.06,14.09-20.28,12-20.25,29.72a36.21,36.21,0,0,0,1.82,11.63l-6.83,2.17a38.16,38.16,0,0,1,1.17-30.71q4-10.24,25.37-22.67t33-12.45q11.26,0,24.62,5.12Q620.34,481.35,625.18,489.78Zm-16.91,33.3v-1.77a16.23,16.23,0,0,0-.25-2.42,11.48,11.48,0,0,0-.49-2.21c-5-2.56-8-3.84-9.26-3.84-3.73,0-7.75,1.28-12,3.84Q596.22,517,608.27,523.08Z" transform="translate(43.49 -247)"/><path class="cls-11" d="M611.62,563.33q9.24,11.8,9.22,32a41.16,41.16,0,0,1-8.47,24.84q-8.45,11.53-21.78,14.09c-5.45,1.21-13.42,1.82-23.81,1.82a100.16,100.16,0,0,1-45.09-10.54V624c5.27-12.27,9.11-21.35,11.53-27.15q25.85,17.94,42.28,17.94a32.68,32.68,0,0,0,3.34-.18v0a24.45,24.45,0,0,0,11.75-4.16c5-3.24,7.43-7.65,7.43-13.31q0-16.92-18.68-27.15-17.46-7.95-34.87-16.16-12.87-7.74-16.87-19.61a36.21,36.21,0,0,1-1.82-11.63q0-17.67,20.25-29.72,24.08-14.08,34.06-14.09,5.13,0,18.47,4.59c9.89,3.27,14.84,6,14.84,8.22l-7.15,14.59q-13.08-5.61-24.88-5.62-24.07,0-24.09,16.12,0,11.54,11.28,20.25,5.13,3.84,23.31,12.81c.6.32,1.21.6,1.81.92C602.62,555.26,608.56,559.49,611.62,563.33Z" transform="translate(43.49 -247)"/><path class="cls-12" d="M608.27,521.31v1.77q-12.06-6.14-22-6.4c4.27-2.56,8.29-3.84,12-3.84,1.21,0,4.27,1.28,9.26,3.84a11.48,11.48,0,0,1,.49,2.21A16.23,16.23,0,0,1,608.27,521.31Z" transform="translate(43.49 -247)"/><path d="M579.34,570Q598,580.24,598,597.14c0,5.66-2.45,10.07-7.43,13.31a24.45,24.45,0,0,1-11.75,4.16l-.71-6.76c2-.28,4.2-1.6,6.59-3.91,2.7-2.64,4.09-5.09,4.09-7.3,0-2.38-1.53-4.2-4.63-5.37-2.38-.71-4.77-1.46-7.15-2.31-10.11-4.81-20.07-9.65-30-14.63-8.68-5.44-15.8-14-21.25-25.62a100.61,100.61,0,0,1-5-12.32l6.83-2.17q4,11.85,16.87,19.61Q561.92,562.05,579.34,570Z" transform="translate(43.49 -247)"/><path class="cls-12" d="M588.81,647c-2,3.17-9.68,4.73-22.88,4.73a142.67,142.67,0,0,1-17.8-1.56q-12.5-1.56-18-1.82c-2.06-4-4.41-8.58-7.12-13.81q22.37,9.24,43.7,9.26h11.21C580.77,643.94,584.4,645,588.81,647Z" transform="translate(43.49 -247)"/><path d="M492.47,539.74q6.15,22.57,6.16,35.87,0,18.74-9.25,39.72-11.53,26.14-30.75,34.87c-3.91,2.21-7.93,4.41-12,6.66a26.69,26.69,0,0,1-12,2.56q-25.4,0-42.27-13.1-9.24-6.89-17.94-30.46-8.49-22.05-8.47-35.62V556.18c.14,0,1.39-6.4,3.85-19.25.67-4.95,2.56-12.81,5.62-23.56q4.63-11.06,19.5-24.59Q407.4,477.46,412,476.47q17.94-5.13,24.34-5.13,20,0,35.88,22.56Q484.5,511.57,492.47,539.74Zm-13.59,78.43A67.56,67.56,0,0,0,490.66,580q0-25.62-12.81-57.9-17.14-43.35-45.34-43.31-26.91,0-39.22,31.78-7.89,21-7.93,48.15,0,43.56,32.56,70c2.7,2.21,6.94,4.45,12.67,6.66s10.28,3.34,13.7,3.34C458.49,638.67,470,631.84,478.88,618.17Zm-70.53,19.22c3.13-.85,5.12-1.35,6-1.53q-17.67-12.29-27.69-34.73a101.58,101.58,0,0,1-9.22-42.35c0-9.86.32-17,1-21.42q.75-5.61,5.63-22-2,1.27-5,7.15c-1.5,6.12-3,12.17-4.52,18.11a101.15,101.15,0,0,0-2.49,19.4,117,117,0,0,0,3.06,27.83c1.85,7.29,3.74,14.62,5.59,21.92a53.56,53.56,0,0,0,3.8,9.47c1.71,3.06,3.42,6.19,5.09,9.43,2.74,5.26,5,8.32,6.66,9.18.67.5,2.77.78,6.37.78A35.91,35.91,0,0,0,408.35,637.39Z" transform="translate(43.49 -247)"/><path class="cls-13" d="M490.66,580a67.56,67.56,0,0,1-11.78,38.18c-8.9,13.67-20.39,20.5-34.59,20.5-3.42,0-8-1.14-13.7-3.34s-10-4.45-12.67-6.66q-32.57-26.42-32.56-70,0-27.18,7.93-48.15,12.33-31.81,39.22-31.78,28.19,0,45.34,43.31Q490.66,554.33,490.66,580Zm-27.4,6.4c3.41-5.8,5.12-12.91,5.12-21.28,0-8.72-2.7-19.32-8.08-31.88s-11.31-21.82-17.79-27.8c-2.06-2.06-5.84-3.09-11.28-3.09q-15.37,0-15.37,33.84a141.4,141.4,0,0,0,3.84,34.59q7.16,26.64,25.12,26.62Q456.84,597.39,463.26,586.39Z" transform="translate(43.49 -247)"/><path d="M447.39,587.68a13.11,13.11,0,0,0,1.92.49,26,26,0,0,0,6,.54c1.35-1,2.88-3.1,4.59-6.16s2.49-5.3,2.32-6.65c-1.71-.36-4.27,1.28-7.69,4.84Q448.14,587.4,447.39,587.68Zm21-22.57c0,8.37-1.71,15.48-5.12,21.28q-6.4,11-18.44,11-18,0-25.12-26.62a141.4,141.4,0,0,1-3.84-34.59q0-33.84,15.37-33.84c5.44,0,9.22,1,11.28,3.09q9.72,9,17.79,27.8C465.68,545.79,468.38,556.39,468.38,565.11Zm-17.15,1.82a14.87,14.87,0,0,0,.25-2.07c0-5.12-1.82-12.2-5.38-21.28q-6.93-17.67-16.4-17.65a7.22,7.22,0,0,0-6.41,3.56v20.25c0,3.24,1.53,10.18,4.59,20.75,3.78,12.67,7.44,19,11,19,2.74,0,5.48-2.74,8.18-8.18,2.56-4.8,3.84-9,3.84-12.56A10.49,10.49,0,0,1,451.23,566.93Z" transform="translate(43.49 -247)"/><path class="cls-14" d="M462.23,575.9c.17,1.35-.61,3.55-2.32,6.65s-3.24,5.13-4.59,6.16a26,26,0,0,1-6-.54,13.11,13.11,0,0,1-1.92-.49q.74-.27,7.15-6.94C458,577.18,460.52,575.54,462.23,575.9Z" transform="translate(43.49 -247)"/><path class="cls-14" d="M414.33,635.86c-.86.18-2.85.68-6,1.53a35.91,35.91,0,0,1-5.73,1.28c-3.6,0-5.7-.28-6.37-.78-1.71-.86-3.92-3.92-6.66-9.18-1.67-3.24-3.38-6.37-5.09-9.43a53.56,53.56,0,0,1-3.8-9.47c-1.85-7.3-3.74-14.63-5.59-21.92a117,117,0,0,1-3.06-27.83,101.15,101.15,0,0,1,2.49-19.4c1.53-5.94,3-12,4.52-18.11q3-5.87,5-7.15-4.86,16.33-5.63,22c-.71,4.41-1,11.56-1,21.42a101.58,101.58,0,0,0,9.22,42.35Q396.62,623.6,414.33,635.86Z" transform="translate(43.49 -247)"/><path d="M297.57,643.8H286.39q-21.34,0-43.74-9.26c2.71,5.23,5.09,9.82,7.12,13.81q5.61.27,18,1.82a142.67,142.67,0,0,0,17.8,1.56c13.24,0,20.85-1.56,22.88-4.73C304.08,645,300.45,643.94,297.57,643.8Zm57.29-41.29A35.88,35.88,0,0,1,352.58,614c-1.21,3.6-2.49,7.26-3.84,11q-10.25,33.57-63.06,33.56a195.28,195.28,0,0,1-21.5-1.78c-11.81-1.39-18.29-2.82-19.5-4.38q-1.27-3.32-3.84-9.47-7.16-15.1-7.15-16.65c0-6.34,5.19-19,15.62-38.19,2.06,0,8.29,3.31,18.72,9.86s20.07,9.89,28.93,9.89a6.09,6.09,0,0,0,.85-.07l.72,6.76v0a33,33,0,0,1-3.35.18q-16.38,0-42.28-17.94c-2.38,5.8-6.22,14.88-11.53,27.15v1.53a100.31,100.31,0,0,0,45.09,10.54c10.43,0,18.36-.61,23.85-1.82q13.29-2.55,21.77-14.09a41.25,41.25,0,0,0,8.44-24.84q0-20.24-9.22-32c-2.42-3.06-6.72-6.4-12.92-10l3.7-6.76c1.53.82,3.06,1.67,4.6,2.49a38.66,38.66,0,0,1,14.37,13.7q2.77,4.38,8.33,17.69T354.86,602.51Z" transform="translate(43.49 -247)"/><path d="M344.9,489.78q3.84,6.66,3.84,23.84c0,3.06-1.85,7-5.52,11.64s-7,7-10.14,7c-.14,0-4.34-1.53-12.53-4.59s-14.8-4.63-19.75-4.63c-2.74,0-4.09,1-4.09,3.1q0,5.61,12.31,13.31c4.42,2.38,8.76,4.77,13.06,7.12l-3.7,6.76c-2.06-1.18-4.34-2.39-6.79-3.63q-18.21-9-23.35-12.81Q277,528.23,277,516.68q0-16.12,24.05-16.12,11.81,0,24.88,5.62l7.15-14.59c0-2.24-4.95-4.95-14.84-8.22q-13.35-4.59-18.47-4.59-10,0-34.06,14.09-20.22,12-20.24,29.72a36.2,36.2,0,0,0,1.81,11.63l-6.83,2.17a38.16,38.16,0,0,1,1.17-30.71Q245.73,495.44,267,483t33.06-12.45c7.51,0,15.69,1.71,24.59,5.12C334.9,479.46,341.62,484.15,344.9,489.78ZM328,523.08v-1.77a16.23,16.23,0,0,0-.25-2.42,12.05,12.05,0,0,0-.5-2.21c-5-2.56-8-3.84-9.22-3.84q-5.65,0-12.06,3.84C312.58,516.86,320,519,328,523.08Z" transform="translate(43.49 -247)"/><path class="cls-15" d="M331.3,563.33q9.24,11.8,9.22,32a41.25,41.25,0,0,1-8.44,24.84q-8.47,11.53-21.77,14.09c-5.49,1.21-13.42,1.82-23.85,1.82a100.31,100.31,0,0,1-45.09-10.54V624c5.31-12.27,9.15-21.35,11.53-27.15q25.89,17.94,42.28,17.94a33,33,0,0,0,3.35-.18v0a24.6,24.6,0,0,0,11.78-4.16c4.94-3.24,7.4-7.65,7.4-13.31q0-16.92-18.69-27.15-17.44-7.95-34.84-16.16-12.85-7.74-16.9-19.61a36.2,36.2,0,0,1-1.81-11.63q0-17.67,20.24-29.72,24.07-14.08,34.06-14.09,5.13,0,18.47,4.59c9.89,3.27,14.84,6,14.84,8.22l-7.15,14.59q-13.08-5.61-24.88-5.62-24.07,0-24.05,16.12,0,11.54,11.24,20.25,5.13,3.84,23.35,12.81c2.45,1.24,4.73,2.45,6.79,3.63C324.58,556.93,328.88,560.27,331.3,563.33Z" transform="translate(43.49 -247)"/><path class="cls-16" d="M328,521.31v1.77c-8-4.09-15.38-6.22-22-6.4q6.4-3.84,12.06-3.84c1.18,0,4.24,1.28,9.22,3.84a12.05,12.05,0,0,1,.5,2.21A16.23,16.23,0,0,1,328,521.31Z" transform="translate(43.49 -247)"/><path d="M299,570q18.69,10.25,18.69,27.15c0,5.66-2.46,10.07-7.4,13.31a24.6,24.6,0,0,1-11.78,4.16l-.72-6.76c2-.28,4.2-1.6,6.59-3.91,2.74-2.64,4.09-5.09,4.09-7.3,0-2.38-1.53-4.2-4.59-5.37-2.42-.71-4.8-1.46-7.19-2.31-10.07-4.81-20.07-9.65-30-14.63q-13.08-8.16-21.28-25.62a99.22,99.22,0,0,1-5-12.32l6.83-2.17q4.07,11.85,16.9,19.61Q281.6,562.05,299,570Z" transform="translate(43.49 -247)"/><path class="cls-16" d="M308.49,647c-2,3.17-9.64,4.73-22.88,4.73a142.67,142.67,0,0,1-17.8-1.56q-12.44-1.56-18-1.82c-2-4-4.41-8.58-7.12-13.81q22.38,9.24,43.74,9.26h11.18C300.45,643.94,304.08,645,308.49,647Z" transform="translate(43.49 -247)"/></svg>